<svg width="1459" height="238" viewBox="0 0 1459 238" fill="none" xmlns="http://www.w3.org/2000/svg">
<path fill-rule="evenodd" clip-rule="evenodd" d="M526.767 130.224L506.743 202.279H485.916L458 96.827H480.874L497.462 173.194H498.047L517.778 96.827H536.413L556.144 173.194H556.729L573.391 96.827H596.264L568.275 202.279H547.448L527.425 130.224H526.767ZM626.665 188.102C635.946 188.102 643.619 182.036 643.619 173.559V167.859L627.104 168.882C619.138 169.467 614.607 173.048 614.607 178.602C614.607 184.448 619.43 188.102 626.665 188.102ZM619.65 203.522C604.742 203.522 593.414 193.875 593.414 179.771C593.414 165.521 604.376 157.263 623.888 156.094L643.619 154.924V149.736C643.619 142.428 638.504 138.189 630.465 138.189C622.5 138.189 617.457 142.136 616.434 147.909H596.922C597.726 132.708 610.661 122.258 631.415 122.258C651.512 122.258 664.593 132.635 664.593 148.42V202.279H643.985V190.294H643.546C639.161 198.625 629.442 203.522 619.65 203.522ZM678.843 202.279V96.827H700.182V202.279H678.843ZM715.09 202.279V96.827H736.429V202.279H715.09ZM785.976 138.043C776.622 138.043 769.899 145.132 769.168 154.924H802.419C801.98 144.913 795.476 138.043 785.976 138.043ZM802.711 178.309H822.296C819.958 193.656 805.927 203.96 786.561 203.96C762.445 203.96 747.975 188.54 747.975 163.475C747.975 138.482 762.591 122.258 785.757 122.258C808.557 122.258 822.954 137.678 822.954 161.501V168.005H768.949V169.321C768.949 180.502 776.038 188.175 786.926 188.175C794.746 188.175 800.738 184.302 802.711 178.309ZM839.616 105.889H860.955V123.939H875.424V140.016H860.955V177.506C860.955 183.498 863.878 186.348 870.163 186.348C872.063 186.348 874.036 186.202 875.351 185.983V201.695C873.159 202.206 869.505 202.572 865.193 202.572C846.777 202.572 839.616 196.433 839.616 181.16V140.016H828.581V123.939H839.616V105.889ZM935.568 204.106C904.875 204.106 885.655 183.571 885.655 149.517C885.655 115.535 905.021 95 935.568 95C960.926 95 980.219 111.077 981.9 134.682H960.414C958.368 121.747 948.43 113.27 935.568 113.27C918.906 113.27 908.163 127.228 908.163 149.443C908.163 171.952 918.76 185.837 935.641 185.837C948.722 185.837 958.149 178.163 960.488 165.667H981.973C979.488 189.198 961.438 204.106 935.568 204.106ZM1029.69 203.96C1006.02 203.96 990.888 188.76 990.888 163.036C990.888 137.678 1006.23 122.258 1029.69 122.258C1053.15 122.258 1068.5 137.605 1068.5 163.036C1068.5 188.833 1053.37 203.96 1029.69 203.96ZM1029.69 187.663C1040.14 187.663 1046.79 178.821 1046.79 163.109C1046.79 147.543 1040.07 138.555 1029.69 138.555C1019.32 138.555 1012.52 147.543 1012.52 163.109C1012.52 178.821 1019.17 187.663 1029.69 187.663ZM1079.46 202.279V123.939H1100.07V137.897H1100.51C1104.67 128.178 1112.93 122.478 1124.99 122.478C1142.38 122.478 1152.17 133.439 1152.17 151.782V202.279H1130.83V156.24C1130.83 146.009 1126.01 140.162 1116.44 140.162C1106.86 140.162 1100.8 147.178 1100.8 157.336V202.279H1079.46ZM1165.69 202.279V123.939H1186.3V137.897H1186.74C1190.9 128.178 1199.16 122.478 1211.22 122.478C1228.61 122.478 1238.41 133.439 1238.41 151.782V202.279H1217.07V156.24C1217.07 146.009 1212.24 140.162 1202.67 140.162C1193.1 140.162 1187.03 147.178 1187.03 157.336V202.279H1165.69ZM1287.08 138.043C1277.72 138.043 1271 145.132 1270.27 154.924H1303.52C1303.08 144.913 1296.58 138.043 1287.08 138.043ZM1303.81 178.309H1323.4C1321.06 193.656 1307.03 203.96 1287.66 203.96C1263.54 203.96 1249.07 188.54 1249.07 163.475C1249.07 138.482 1263.69 122.258 1286.86 122.258C1309.66 122.258 1324.05 137.678 1324.05 161.501V168.005H1270.05V169.321C1270.05 180.502 1277.14 188.175 1288.03 188.175C1295.84 188.175 1301.84 184.302 1303.81 178.309ZM1406.19 153.097H1386.39C1385.15 144.84 1379.67 138.993 1370.9 138.993C1360.37 138.993 1353.8 147.909 1353.8 163.036C1353.8 178.456 1360.37 187.225 1370.97 187.225C1379.52 187.225 1385.07 182.11 1386.39 173.559H1406.27C1405.17 192.048 1391.36 203.96 1370.75 203.96C1347.15 203.96 1332.16 188.614 1332.16 163.036C1332.16 137.897 1347.15 122.258 1370.6 122.258C1391.8 122.258 1405.24 135.339 1406.19 153.097ZM1422.27 105.889H1443.61V123.939H1458.08V140.016H1443.61V177.506C1443.61 183.498 1446.53 186.348 1452.82 186.348C1454.72 186.348 1456.69 186.202 1458.01 185.983V201.695C1455.81 202.206 1452.16 202.572 1447.85 202.572C1429.43 202.572 1422.27 196.433 1422.27 181.16V140.016H1411.24V123.939H1422.27V105.889Z" fill="#3999FB"/>
<path d="M79.4993 46.5391C142.716 -15.3548 245.209 -15.3548 308.426 46.5391L316.034 53.9882C319.195 57.0829 319.195 62.1004 316.034 65.1951L290.008 90.6768C288.427 92.2241 285.865 92.2241 284.285 90.6768L273.815 80.426C229.714 37.2472 158.211 37.2472 114.11 80.426L102.898 91.4037C101.317 92.9511 98.7551 92.9511 97.1747 91.4037L71.1486 65.922C67.9878 62.8273 67.9878 57.8098 71.1486 54.7151L79.4993 46.5391ZM362.25 99.2379L385.413 121.917C388.574 125.011 388.574 130.029 385.413 133.124L280.969 235.385C277.808 238.48 272.683 238.48 269.522 235.385C269.522 235.385 269.522 235.385 269.522 235.385L195.394 162.807C194.604 162.034 193.322 162.034 192.532 162.807C192.532 162.807 192.532 162.807 192.532 162.807L118.405 235.385C115.244 238.48 110.12 238.48 106.959 235.385C106.959 235.385 106.959 235.385 106.959 235.385L2.51129 133.122C-0.649517 130.028 -0.649517 125.01 2.51129 121.915L25.6746 99.2366C28.8354 96.1419 33.9601 96.1419 37.1209 99.2366L111.25 171.816C112.041 172.589 113.322 172.589 114.112 171.816C114.112 171.816 114.112 171.816 114.112 171.816L188.238 99.2366C191.399 96.1419 196.523 96.1418 199.684 99.2364C199.684 99.2364 199.684 99.2365 199.684 99.2365L273.814 171.816C274.604 172.589 275.885 172.589 276.675 171.816L350.804 99.2379C353.964 96.1432 359.089 96.1432 362.25 99.2379Z" fill="#3B99FC"/>
</svg>
